<svg xmlns="http://www.w3.org/2000/svg" width="331.111" height="40" viewBox="0 0 331.111 40"><g transform="translate(-145.617 -323.504)"><g transform="translate(293.397 323.504)"><path d="M359.748,336.545a6.452,6.452,0,0,1,.312-2.183c.032-.1.071-.191.11-.284.012-.03.022-.073.067-.06s.028.048.028.076c0,.08,0,.161-.008.241a9.738,9.738,0,0,0,0,2.324,8.789,8.789,0,0,0,.56,2.306,12.88,12.88,0,0,0,.852,1.653c.708,1.186,1.517,2.306,2.268,3.464a21.718,21.718,0,0,1,1.412,2.355,12.749,12.749,0,0,1,.839,2.386c.179.7.272,1.417.407,2.126a24.847,24.847,0,0,0,1.219,4.517,11.431,11.431,0,0,0,1.025,1.961c.08.124.152.253.221.384.025.049.064.112.006.163s-.114.009-.165-.015a2.151,2.151,0,0,1-.546-.385,6.893,6.893,0,0,1-1.554-2.2,17.864,17.864,0,0,1-1.082-3.117c-.223-.864-.369-1.743-.546-2.615a12.493,12.493,0,0,0-1.467-3.892c-.782-1.327-1.615-2.624-2.371-3.967a13.848,13.848,0,0,1-1.3-2.908,8.412,8.412,0,0,1-.257-1.482c-.031-.282-.023-.565-.029-.847" transform="translate(-339.938 -325.775)" fill="#ff009f"/><path d="M354.377,327.82a9.246,9.246,0,0,1,.114-1.649,7.61,7.61,0,0,1,.667-2.314c.052-.1.114-.2.175-.294.019-.031.042-.073.088-.054s.029.056.03.089a1.846,1.846,0,0,1-.062.425,13.6,13.6,0,0,0-.217,2.912,18.379,18.379,0,0,0,.209,2.23,27.086,27.086,0,0,0,.608,2.9q.477,1.838,1.035,3.653c.174.56.32,1.128.521,1.68a10.3,10.3,0,0,0,.536,1.215,1.891,1.891,0,0,1,.118.307.136.136,0,0,1-.016.144c-.045.045-.1.018-.142,0a2.06,2.06,0,0,1-.682-.532,6.423,6.423,0,0,1-1.134-1.989,22.178,22.178,0,0,1-.768-2.144c-.205-.679-.395-1.361-.548-2.054-.121-.549-.231-1.1-.318-1.653-.083-.535-.138-1.072-.182-1.61-.029-.363-.024-.726-.031-1.259" transform="translate(-338.77 -323.504)" fill="#ff009f"/><path d="M350.917,351.311c-.7.018-1.409,0-2.112-.031-.773-.032-1.546-.083-2.317-.161-.52-.052-1.04-.095-1.557-.165s-1.015-.161-1.518-.268a20.08,20.08,0,0,1-2.112-.567,11.808,11.808,0,0,1-1.985-.819,2.107,2.107,0,0,1-.2-.132c-.023-.017-.049-.043-.038-.074s.053-.033.087-.027c.216.037.434.067.647.113,1.217.26,2.44.481,3.676.63q.865.1,1.736.158c.4.024.809.032,1.212.05.723.032,1.446.071,2.17.1q.795.034,1.588.1c.617.052,1.232.114,1.844.212.382.062.769.089,1.154.14a2.5,2.5,0,0,1,.608.106c.049.02.11.031.118.1s-.042.1-.092.139a2.157,2.157,0,0,1-.8.286,6,6,0,0,1-1.37.108c-.245,0-.489,0-.734,0" transform="translate(-335.445 -329.026)" fill="#ff009f"/><path d="M349.395,340.642a4.659,4.659,0,0,1-1.318-.287,12.409,12.409,0,0,1-3.96-2.277,22.827,22.827,0,0,1-2.342-2.273,20,20,0,0,1-1.959-2.53,4.257,4.257,0,0,1-.4-.732c-.016-.041-.055-.089,0-.125s.081.008.114.034c.1.082.205.162.3.252.281.267.558.539.836.811.775.758,1.561,1.5,2.384,2.212.87.749,1.762,1.47,2.7,2.133s1.918,1.243,2.9,1.827a7.4,7.4,0,0,1,.9.587c.085.069.2.14.161.26s-.179.1-.289.107h-.025" transform="translate(-335.513 -325.428)" fill="#ff009f"/><path d="M350.268,324.67a12.145,12.145,0,0,0,.09,2,19.34,19.34,0,0,0,1.3,4.489c.5,1.233.963,2.48,1.362,3.749a9.115,9.115,0,0,1,.353,1.464.891.891,0,0,1-.011.4c-.04.123-.1.145-.21.071a1.374,1.374,0,0,1-.309-.365,12.819,12.819,0,0,1-1.024-1.891c-.478-1.018-.884-2.064-1.263-3.122a16.879,16.879,0,0,1-.7-2.588,10.634,10.634,0,0,1-.189-2.621,5.371,5.371,0,0,1,.389-1.836c.031-.071.054-.19.133-.178.1.015.064.139.076.216a1.41,1.41,0,0,1,0,.216" transform="translate(-337.744 -323.662)" fill="#ff009f"/><path d="M344.188,359.884c-.05-.005-.1.013-.117-.029s.027-.075.058-.1a6.843,6.843,0,0,1,.819-.549,33.647,33.647,0,0,1,3.637-1.83c.828-.361,1.658-.714,2.518-.993a13.77,13.77,0,0,1,2.74-.582,9.2,9.2,0,0,1,1.8-.031,2.671,2.671,0,0,1,.717.144.88.88,0,0,1,.1.045c.059.032.128.066.124.145s-.067.114-.129.143a3.13,3.13,0,0,1-.691.2c-.9.188-1.792.365-2.682.577-1.116.267-2.21.611-3.294.986q-2.073.72-4.146,1.438c-.434.15-.87.3-1.315.409-.053.013-.108.017-.149.024" transform="translate(-336.53 -330.469)" fill="#ff009f"/><path d="M350.409,344.755a5.659,5.659,0,0,1-1.383-.212,17.191,17.191,0,0,1-3.5-1.332c-.989-.5-1.928-1.079-2.868-1.661-.985-.612-1.954-1.25-2.887-1.94a5.946,5.946,0,0,1-.635-.522c-.034-.033-.09-.069-.055-.126s.086-.02.128-.009a6.132,6.132,0,0,1,.977.38c1.58.714,3.124,1.5,4.674,2.277,1.144.571,2.3,1.1,3.472,1.624.574.256,1.145.519,1.71.793a2.654,2.654,0,0,1,.727.452c.047.046.11.091.085.17s-.1.1-.175.1a2.464,2.464,0,0,1-.265,0" transform="translate(-335.443 -326.838)" fill="#ff009f"/><path d="M349.108,336.474a1.948,1.948,0,0,1-.668-.306,11.1,11.1,0,0,1-1.96-1.632,17.141,17.141,0,0,1-2.491-3.246,20.019,20.019,0,0,1-1.584-3.238,8.2,8.2,0,0,1-.417-1.406.573.573,0,0,1-.012-.062c0-.042-.013-.091.035-.112s.078.016.106.049a3.631,3.631,0,0,1,.341.5c.592.964,1.174,1.934,1.811,2.869.6.88,1.241,1.728,1.914,2.551.5.618,1.028,1.22,1.547,1.824a20.181,20.181,0,0,1,1.348,1.643,1.445,1.445,0,0,1,.195.368c.042.126-.02.2-.165.2" transform="translate(-336.075 -324.144)" fill="#ff009f"/><path d="M383.251,362.191a2.858,2.858,0,0,1-1.3-.213c-.07-.033-.19-.054-.174-.154s.131-.086.213-.1c.409-.059.822-.077,1.23-.144a3.151,3.151,0,0,0,1.818-.8,4.851,4.851,0,0,0,.955-1.392,9.265,9.265,0,0,0,.569-1.8c.278-1.162.5-2.337.808-3.491a9.368,9.368,0,0,1,.892-2.268,4.17,4.17,0,0,1,.612-.82c.026-.027.052-.085.1-.05s0,.071-.011.105c-.155.388-.353.757-.492,1.152a11.719,11.719,0,0,0-.5,1.923c-.081.47-.166.939-.236,1.411q-.143.97-.318,1.935a9.293,9.293,0,0,1-.812,2.628,3.679,3.679,0,0,1-2.069,1.89,3.062,3.062,0,0,1-.927.181c-.122,0-.244,0-.366,0" transform="translate(-344.727 -329.435)" fill="#ff009f"/><path d="M344.818,355.547c-.059,0-.118,0-.177,0-.042,0-.09,0-.1-.056s.031-.064.062-.086a3.775,3.775,0,0,1,.722-.364,23.377,23.377,0,0,1,2.506-.871c.639-.187,1.284-.356,1.934-.5a17.272,17.272,0,0,1,2.223-.338,15.515,15.515,0,0,1,1.63-.039,5.46,5.46,0,0,1,1.435.2,1.036,1.036,0,0,1,.254.113c.128.078.131.164,0,.252a1.48,1.48,0,0,1-.531.193c-.771.169-1.554.259-2.335.361-.743.1-1.487.2-2.229.31-.8.119-1.6.248-2.4.377-.556.09-1.111.2-1.669.282-.441.069-.881.141-1.327.169" transform="translate(-336.633 -329.939)" fill="#ff009f"/><path d="M350.088,348.414a9.167,9.167,0,0,1-2.1-.3,14.657,14.657,0,0,1-2.392-.815,17.145,17.145,0,0,1-3.138-1.79,11.8,11.8,0,0,1-1.084-.892,2.9,2.9,0,0,1-.256-.3c-.023-.027-.058-.06-.028-.1s.07-.023.106-.013a3.386,3.386,0,0,1,.549.226c.642.3,1.28.609,1.924.9a27.735,27.735,0,0,0,2.765,1.091c1.095.368,2.192.729,3.286,1.1a4.5,4.5,0,0,1,1.058.477c.073.049.143.1.132.2s-.1.125-.183.151a2.1,2.1,0,0,1-.64.057" transform="translate(-335.881 -327.975)" fill="#ff009f"/><path d="M356.982,362.18a3.206,3.206,0,0,1,.668.056.379.379,0,0,1,.1.032c.065.029.144.052.152.136s-.056.136-.119.181a3.427,3.427,0,0,1-.941.424c-1.182.4-2.393.7-3.6,1-1.113.278-2.211.6-3.291.989-.579.208-1.161.407-1.741.608-.067.023-.139.038-.208.055-.041.01-.086.024-.116-.018s0-.081.027-.113a2.018,2.018,0,0,1,.418-.365,14.955,14.955,0,0,1,3.474-1.849,17.636,17.636,0,0,1,2.8-.821,14.085,14.085,0,0,1,2-.3c.135-.009.268-.024.388-.022" transform="translate(-337.356 -331.86)" fill="#ff009f"/><path d="M355.334,359.174a4.035,4.035,0,0,1,1.272.151.647.647,0,0,1,.226.11c.124.1.114.212-.028.288a2.517,2.517,0,0,1-.635.21c-.985.227-1.978.422-2.951.7-.677.193-1.341.426-2.005.662-1.133.4-2.234.884-3.351,1.323a2.186,2.186,0,0,1-.431.142c-.052.009-.117.041-.153-.013s.029-.109.065-.148a3.887,3.887,0,0,1,.538-.477,17.8,17.8,0,0,1,4.229-2.331,9.3,9.3,0,0,1,2.314-.569,6.416,6.416,0,0,1,.91-.049" transform="translate(-337.225 -331.21)" fill="#ff009f"/><path d="M385.879,355.041a10.742,10.742,0,0,1,.718-3.887,6.449,6.449,0,0,1,1.428-2.251.886.886,0,0,1,.175-.144c.027-.016.055-.029.082-.006s.014.053,0,.081c-.084.18-.165.361-.252.539a11.8,11.8,0,0,0-.927,2.595c-.111.495-.18,1-.25,1.5-.1.71-.184,1.422-.263,2.135a7.433,7.433,0,0,1-.171,1.048.66.66,0,0,1-.09.209c-.057.082-.125.081-.182,0a.659.659,0,0,1-.088-.2,5.636,5.636,0,0,1-.182-1.618" transform="translate(-345.618 -328.956)" fill="#ff009f"/><path d="M383.029,355.254a7.756,7.756,0,0,1,1.1-3.813,3.543,3.543,0,0,1,.52-.7c.037-.037.077-.1.136-.058s.012.095,0,.141c-.164.528-.358,1.046-.5,1.58a10.892,10.892,0,0,0-.355,2.017,10.577,10.577,0,0,0-.045,1.239c.023.526.057,1.052.115,1.576a3.614,3.614,0,0,1,.031.644.393.393,0,0,1-.03.135c-.038.082-.1.1-.171.039a.992.992,0,0,1-.225-.272,4.992,4.992,0,0,1-.538-1.86c-.024-.224-.023-.447-.031-.672" transform="translate(-344.999 -329.374)" fill="#ff009f"/><path d="M381.4,358.934c0,.151-.091.216-.219.163a1.691,1.691,0,0,1-.625-.522,4.551,4.551,0,0,1-.772-1.342,7.477,7.477,0,0,1-.374-1.677,7.652,7.652,0,0,1-.054-1.277,2.758,2.758,0,0,1,.092-.65c.011-.04.013-.093.066-.1s.074.049.092.091a5.007,5.007,0,0,1,.2.7,20.454,20.454,0,0,0,.9,2.938c.17.414.362.818.543,1.227a2.659,2.659,0,0,1,.145.441" transform="translate(-344.199 -329.992)" fill="#ff009f"/><path d="M378.917,359.937a2.032,2.032,0,0,1-.722-.261,3.576,3.576,0,0,1-1.346-1.422,6.293,6.293,0,0,1-.654-1.693,2.917,2.917,0,0,1-.077-.8.607.607,0,0,1,.009-.1c.011-.044.018-.1.072-.109s.068.044.09.078c.15.24.261.5.387.753a11.375,11.375,0,0,0,1.445,2.192,11.967,11.967,0,0,0,.826.889.829.829,0,0,1,.153.2c.095.176.038.276-.184.277" transform="translate(-343.496 -330.427)" fill="#ff009f"/><path d="M371.79,358.791a5.263,5.263,0,0,1,1.366.3,10.738,10.738,0,0,1,2.526,1.286c.171.114.328.251.489.379a.9.9,0,0,1,.2.273c.077.139-.021.258-.2.241a2.508,2.508,0,0,1-.589-.136,8.845,8.845,0,0,1-1.885-.967c-.581-.376-1.194-.695-1.788-1.048-.076-.045-.15-.093-.224-.143-.041-.028-.095-.059-.081-.117s.085-.056.138-.065a.215.215,0,0,1,.05,0" transform="translate(-342.515 -331.128)" fill="#ff009f"/><path d="M371.826,361.435a5.653,5.653,0,0,1,2.265.471,2.32,2.32,0,0,1,.708.478c.143.151.142.29.009.376a.367.367,0,0,1-.207.046,3.164,3.164,0,0,1-1.047-.216c-.7-.241-1.4-.495-2.083-.775a1.266,1.266,0,0,1-.29-.154c-.09-.068-.083-.121.026-.157a2.26,2.26,0,0,1,.62-.069" transform="translate(-342.41 -331.699)" fill="#ff009f"/><path d="M351.98,372.631a1.523,1.523,0,0,1,.383-.178,6.088,6.088,0,0,1,2.5-.265,13.847,13.847,0,0,1,2.18.352c.9.2,1.809.4,2.71.612a11.436,11.436,0,0,0,3.228.252,18.738,18.738,0,0,0,1.957-.229,9.667,9.667,0,0,0,1.792-.423c.282-.1.557-.219.837-.325.067-.025.156-.088.2-.008s-.044.138-.1.184a3.317,3.317,0,0,1-.756.456,10.041,10.041,0,0,1-2.284.722,16.252,16.252,0,0,1-1.867.222,10.672,10.672,0,0,1-1.676-.069,16.019,16.019,0,0,1-2.814-.59c-.88-.232-1.753-.485-2.644-.675a9.056,9.056,0,0,0-2.335-.208,5.642,5.642,0,0,0-1.147.18,1.494,1.494,0,0,1-.157.023l-.009-.034" transform="translate(-338.25 -334.018)" fill="#ff009f"/><path d="M338.694,369.939a20.921,20.921,0,0,0-2.28.17c-.614.078-1.222.2-1.836.276-.016,0-.033.007-.05.009-.033,0-.075.013-.088-.027s.029-.056.058-.07c.135-.059.269-.121.407-.172a12.978,12.978,0,0,1,2.83-.686,6.785,6.785,0,0,1,2.461.071,2.879,2.879,0,0,1,1.331.666,1.093,1.093,0,0,1,.206.255c.022.036.045.08.015.118s-.085.031-.128.013c-.19-.081-.378-.169-.57-.245a5.308,5.308,0,0,0-1.726-.345c-.248-.012-.5-.044-.631-.032" transform="translate(-334.438 -333.412)" fill="#ff009f"/><path d="M373.374,371.205c.054-.034.1,0,.143.016a2.689,2.689,0,0,0,1.978-.008,10.175,10.175,0,0,0,1.73-.861,8.885,8.885,0,0,1,1.838-.865,2.416,2.416,0,0,1,1.309-.078.69.69,0,0,1,.232.1c.072.051.062.1-.019.123a1.92,1.92,0,0,1-.273.052,4.41,4.41,0,0,0-1.465.458c-.659.333-1.311.68-1.971,1.01a5.14,5.14,0,0,1-1.913.578,2.244,2.244,0,0,1-1.5-.423c-.034-.024-.081-.047-.087-.1" transform="translate(-342.9 -333.41)" fill="#ff009f"/><path d="M381.11,366.132c-.014.065-.062.038-.1.022-.25-.1-.5-.2-.751-.3a8.382,8.382,0,0,0-.966-.288,7.482,7.482,0,0,0-1.8-.156,4.641,4.641,0,0,1-.672-.083,7.675,7.675,0,0,1-.8-.161,7.467,7.467,0,0,1-.888-.287,6.252,6.252,0,0,1-1.031-.507.541.541,0,0,1-.054-.032c-.021-.018-.059-.037-.046-.068s.058-.02.088-.01c.266.094.534.181.807.252s.532.146.805.2c.351.065.7.116,1.055.159a4.34,4.34,0,0,0,.69.034,9.089,9.089,0,0,1,1.2.062,3.851,3.851,0,0,1,1.486.371,3.451,3.451,0,0,1,.9.646.285.285,0,0,1,.087.148" transform="translate(-343.035 -332.307)" fill="#ff009f"/><path d="M343.456,369.279a5.381,5.381,0,0,1-.693,0,7.89,7.89,0,0,1-1.616-.368c-.388-.137-.788-.234-1.186-.338-.443-.115-.894-.2-1.341-.29-.25-.052-.5-.076-.757-.114-.039-.005-.1.006-.1-.053s.06-.048.1-.049a10.025,10.025,0,0,1,1.338.008,11.967,11.967,0,0,1,1.4.2c.526.107,1.039.275,1.568.373.266.049.534.1.8.128.4.045.8.071,1.191.112a3.9,3.9,0,0,1,.675.06c.034.01.084,0,.089.053s-.036.064-.07.08a1.983,1.983,0,0,1-.47.143,3.854,3.854,0,0,1-.94.053" transform="translate(-335.161 -333.127)" fill="#ff009f"/><path d="M348.892,372.02a3.546,3.546,0,0,1-1.8-.463.233.233,0,0,1-.033-.02c-.044-.035-.13-.066-.106-.123s.1-.012.156,0a5.406,5.406,0,0,0,1.754.132,8.6,8.6,0,0,0,1.759-.446c.5-.171,1-.368,1.495-.548.092-.034.218-.089.276.013s-.065.161-.128.224a3.769,3.769,0,0,1-1.179.746,6.264,6.264,0,0,1-1.576.444,3.066,3.066,0,0,1-.618.04" transform="translate(-337.157 -333.659)" fill="#ff009f"/><path d="M349.635,370.7a7.626,7.626,0,0,1-2.124-.336,5.893,5.893,0,0,1-.756-.284,1.453,1.453,0,0,1-.132-.073.052.052,0,0,1-.032-.051c0-.031.03-.039.055-.042a.97.97,0,0,1,.126,0c.467.016.931.072,1.4.111.31.027.622.038.931.071a4.749,4.749,0,0,1,1.271.248c.078.031.18.067.173.161s-.124.118-.206.139a2.377,2.377,0,0,1-.7.061" transform="translate(-337.079 -333.53)" fill="#ff009f"/><path d="M341.024,370.842a4.615,4.615,0,0,1,1.6.26.828.828,0,0,1,.235.123c.1.08.087.175-.028.226a.736.736,0,0,1-.258.057,7.477,7.477,0,0,1-1.5-.114c-.43-.063-.863-.094-1.294-.14-.092-.009-.183-.024-.274-.041-.034-.006-.086,0-.088-.053s.045-.058.078-.073a1.835,1.835,0,0,1,.421-.132,4.894,4.894,0,0,1,1.105-.112" transform="translate(-335.52 -333.731)" fill="#ff009f"/><path d="M371.583,368.982a3.864,3.864,0,0,1-1.564-.414c-.059-.031-.162-.059-.136-.138s.131-.061.2-.054a12.214,12.214,0,0,0,1.476.043c.468-.005.931-.082,1.4-.115a.691.691,0,0,1,.263.017c.124.038.145.107.061.2a.723.723,0,0,1-.209.161,2.827,2.827,0,0,1-1.49.3" transform="translate(-342.141 -333.182)" fill="#ff009f"/><path d="M343.46,372.967c-.177,0-.354,0-.531,0-.057,0-.146.009-.16-.067s.07-.089.119-.115a2.519,2.519,0,0,1,.776-.259,4.176,4.176,0,0,1,2,.143.792.792,0,0,1,.247.125c.113.088.1.181-.025.24a1,1,0,0,1-.383.07,7.242,7.242,0,0,1-1.359-.1,5.829,5.829,0,0,0-.682-.031" transform="translate(-336.248 -334.082)" fill="#ff009f"/><path d="M382.993,368.807a4.031,4.031,0,0,1-1.32-.211,1.6,1.6,0,0,1-.226-.113.143.143,0,0,1-.084-.145c.009-.064.061-.085.113-.106a1.219,1.219,0,0,1,.488-.055,6.115,6.115,0,0,1,1.281.118,1.843,1.843,0,0,1,.978.494.838.838,0,0,1,.194.337c.01.035.035.078,0,.107s-.071-.008-.1-.029a2.07,2.07,0,0,0-.592-.307,1.923,1.923,0,0,0-.731-.089" transform="translate(-344.636 -333.156)" fill="#ff009f"/><path d="M383.652,367.065a1.747,1.747,0,0,1,1.609,1.21,1.438,1.438,0,0,1,.056.846.686.686,0,0,1-.028.1c-.016.035-.024.09-.08.083s-.045-.056-.056-.091a3.107,3.107,0,0,0-.346-.839,2.107,2.107,0,0,0-.88-.717c-.182-.089-.366-.173-.546-.263-.069-.034-.144-.08-.128-.169s.1-.108.175-.125a2.13,2.13,0,0,1,.225-.033" transform="translate(-345.047 -332.916)" fill="#ff009f"/><path d="M371.821,370.305c-.071,0-.142,0-.214,0-.03,0-.06-.011-.065-.048a.065.065,0,0,1,.033-.064,1.1,1.1,0,0,1,.126-.084c.547-.281,1.093-.564,1.644-.837a2.334,2.334,0,0,1,.707-.227.433.433,0,0,1,.063-.009c.08,0,.171-.012.213.074s-.023.146-.074.2a2.391,2.391,0,0,1-.693.478,4.687,4.687,0,0,1-1.475.5c-.087.013-.176.016-.264.023v-.009" transform="translate(-342.502 -333.341)" fill="#ff009f"/><path d="M373.016,367.593a9.423,9.423,0,0,1-1.37-.105.258.258,0,0,1-.049-.009c-.047-.016-.11-.023-.117-.081s.056-.081.1-.1a3.339,3.339,0,0,1,.752-.209,4,4,0,0,1,1.006-.059,1.44,1.44,0,0,1,.547.14c.074.035.164.074.157.178s-.1.136-.186.162a2.561,2.561,0,0,1-.838.082" transform="translate(-342.488 -332.906)" fill="#ff009f"/><path d="M373.685,366.6a13.388,13.388,0,0,1-1.834-.259c-.092-.027-.24-.038-.239-.147s.146-.095.236-.117a5.436,5.436,0,0,1,1.1-.13,1.439,1.439,0,0,1,.927.278c.084.063.194.129.161.247s-.166.124-.276.128h-.076" transform="translate(-342.518 -332.673)" fill="#ff009f"/><path d="M349.76,369.272a2.844,2.844,0,0,1-1.688-.623c-.041-.034-.1-.069-.071-.134s.081-.053.132-.045c.537.082,1.079.125,1.611.242a1.285,1.285,0,0,1,.444.177.2.2,0,0,1,.114.171c-.006.078-.076.119-.143.147a.918.918,0,0,1-.4.066" transform="translate(-337.384 -333.218)" fill="#ff009f"/><path d="M373.15,371.162a1.675,1.675,0,0,1-.668-.112c-.041-.016-.1-.029-.1-.085s.059-.074.108-.087c.349-.1.705-.168,1.045-.3a7.989,7.989,0,0,1,.767-.255.744.744,0,0,1,.275-.027c.123.014.164.092.114.2a.86.86,0,0,1-.405.366,2.278,2.278,0,0,1-1.137.292" transform="translate(-342.685 -333.614)" fill="#ff009f"/><path d="M374.31,365.6a1.639,1.639,0,0,1-.977-.414,3.746,3.746,0,0,1-.6-.583.288.288,0,0,1-.038-.05c-.023-.047-.082-.093-.035-.147s.1-.024.155-.008a6.051,6.051,0,0,1,.99.448,3.861,3.861,0,0,1,.6.354l.02.015c.089.071.181.156.139.274s-.171.1-.257.111" transform="translate(-342.742 -332.335)" fill="#ff009f"/><path d="M380.095,366.378a2.112,2.112,0,0,1,1.153.423,1,1,0,0,0,.529.275c.035,0,.084.01.087.058s-.041.06-.074.075a.5.5,0,0,1-.392.007,4.635,4.635,0,0,1-.554-.327,2.149,2.149,0,0,0-1.411-.27c-.037.006-.095.041-.11-.015s.05-.071.091-.087a2.074,2.074,0,0,1,.682-.14" transform="translate(-344.193 -332.767)" fill="#ff009f"/><path d="M380.943,367.481v.026c0,.109.01.235-.112.285s-.217-.031-.308-.1a.512.512,0,0,1-.071-.071.291.291,0,0,1,0-.419.382.382,0,0,1,.442.049c.063.067.042.151.049.228" transform="translate(-344.419 -332.935)" fill="#ff009f"/></g><g transform="translate(145.617 337.431)"><path d="M166,360.9l-.585,1.434a15.836,15.836,0,0,1-7.3,1.743,12.889,12.889,0,0,1-9.028-3.161,10.652,10.652,0,0,1-3.471-8.264,10.913,10.913,0,0,1,1.731-6.145,10.743,10.743,0,0,1,4.572-3.932,15.125,15.125,0,0,1,6.38-1.3,19.148,19.148,0,0,1,4.049.432,16.957,16.957,0,0,1,3.34,1.033l.108.154a19.694,19.694,0,0,0-.662,4.272l-.107.123H164.3l-.123-.123-.154-2.621a8.328,8.328,0,0,0-2.717-1.4,11,11,0,0,0-3.318-.5,9.623,9.623,0,0,0-4.664,1.118,7.787,7.787,0,0,0-3.2,3.238,10.846,10.846,0,0,0-1.139,5.189,10.66,10.66,0,0,0,1.339,5.412,9.173,9.173,0,0,0,3.656,3.577,11.235,11.235,0,0,0,5.411,1.249,12.91,12.91,0,0,0,2.632-.262,9.933,9.933,0,0,0,2.1-.648,9.635,9.635,0,0,0,1.608-.941Z" transform="translate(-145.617 -341.269)"/><path d="M172.877,352.884a13.689,13.689,0,0,1,.662-4.318,10,10,0,0,1,2.255-3.708,10.916,10.916,0,0,1,3.841-2.636,13.144,13.144,0,0,1,5.079-.933,11.867,11.867,0,0,1,8.359,2.86,10.088,10.088,0,0,1,3.109,7.81,12.789,12.789,0,0,1-1.524,6.26,10.678,10.678,0,0,1-4.364,4.317,13.156,13.156,0,0,1-6.381,1.542,12.357,12.357,0,0,1-4.618-.84,9.416,9.416,0,0,1-3.595-2.505,10.192,10.192,0,0,1-2.155-3.855A13.75,13.75,0,0,1,172.877,352.884Zm3.2-1.018a15.03,15.03,0,0,0,.608,4.048,10.642,10.642,0,0,0,1.817,3.716,7.815,7.815,0,0,0,2.786,2.3,8.85,8.85,0,0,0,7.843-.339,6.875,6.875,0,0,0,2.832-3.4,13.218,13.218,0,0,0,.97-5.173,13.8,13.8,0,0,0-1.108-5.628,7.442,7.442,0,0,0-3.156-3.655,9.171,9.171,0,0,0-4.541-1.141,7.611,7.611,0,0,0-5.9,2.343Q176.079,347.288,176.079,351.867Z" transform="translate(-151.542 -341.273)"/><path d="M203.978,363.748l-.139-.139V362.9l.139-.123a10.689,10.689,0,0,0,1.5-.108,1.132,1.132,0,0,0,.723-.308,1.452,1.452,0,0,0,.216-.694q.054-.479.107-2.159t.054-2.405V344.644a1.931,1.931,0,0,0-.285-1.164,1.247,1.247,0,0,0-.777-.478,10.359,10.359,0,0,0-1.678-.116l-.123-.123v-.724l.123-.139q2.125.076,2.786.077,1.556,0,2.555-.077l4.911,6.383,7.219,9.067q1.308,1.65,2.663,3.129V348.545q0-.555-.054-2.367t-.131-2.3a1.105,1.105,0,0,0-.27-.655,1.5,1.5,0,0,0-.723-.254,10.723,10.723,0,0,0-1.439-.1l-.123-.124v-.709l.123-.139q1.247.076,3.556.077,2.11,0,3.063-.077l.139.139v.709l-.123.124a10.279,10.279,0,0,0-1.57.115.993.993,0,0,0-.693.332,1.762,1.762,0,0,0-.193.679q-.054.447-.108,2.128t-.054,2.421v7.324l.016,4.24q.031,2.081.062,4.178a24.755,24.755,0,0,0-2.663-.648l-1.093-1.3-3.279-4.009-10.437-13.06V357.1q0,.709.054,2.528a20.181,20.181,0,0,0,.131,2.205,1.248,1.248,0,0,0,.2.532,1.162,1.162,0,0,0,.531.27,7.5,7.5,0,0,0,1.686.139l.123.123v.725l-.123.123a21.651,21.651,0,0,0-2.586-.108Q205.7,363.639,203.978,363.748Z" transform="translate(-158.245 -341.405)"/><path d="M235.973,341.939l.124-.107q2.663.124,3.632.123l7.2-.154a18.316,18.316,0,0,1,5.049.579,8.655,8.655,0,0,1,3.5,2,9.531,9.531,0,0,1,2.324,3.315,10.312,10.312,0,0,1,.793,4.032,12.194,12.194,0,0,1-.724,4.116,11.959,11.959,0,0,1-2.054,3.647,11.253,11.253,0,0,1-3.033,2.6,10.952,10.952,0,0,1-3.41,1.319,18.291,18.291,0,0,1-3.494.332q-1.2,0-4.526-.093-1.093-.032-1.447-.031-1.061,0-2.57.124l-.124-.124v-.509l.124-.154a8.332,8.332,0,0,0,1.039-.579,12.043,12.043,0,0,0,.216-2.7q.085-2.582.085-3.939V350.08l-.016-3.5q0-1.142-.031-1.858a5.8,5.8,0,0,0-.108-1.025,1.172,1.172,0,0,0-.177-.432.755.755,0,0,0-.323-.209,3.56,3.56,0,0,0-.762-.147l-1.169-.092-.124-.107Zm5.7,20.122a18.932,18.932,0,0,0,3.617.308,11.725,11.725,0,0,0,5.734-1.2,7.472,7.472,0,0,0,3.21-3.561,12.822,12.822,0,0,0,1.062-5.32,9.342,9.342,0,0,0-2.324-6.769q-2.324-2.4-7.327-2.405a24.793,24.793,0,0,0-3.971.309q-.124,2.528-.124,5.7v4.842l.031,4.533Q241.577,359.825,241.669,362.061Z" transform="translate(-165.256 -341.384)"/><path d="M266.656,352.884a13.712,13.712,0,0,1,.661-4.318,10.015,10.015,0,0,1,2.256-3.708,10.92,10.92,0,0,1,3.84-2.636,13.148,13.148,0,0,1,5.08-.933,11.867,11.867,0,0,1,8.359,2.86,10.091,10.091,0,0,1,3.109,7.81,12.789,12.789,0,0,1-1.524,6.26,10.683,10.683,0,0,1-4.364,4.317,13.158,13.158,0,0,1-6.381,1.542,12.364,12.364,0,0,1-4.618-.84,9.413,9.413,0,0,1-3.594-2.505,10.194,10.194,0,0,1-2.155-3.855A13.775,13.775,0,0,1,266.656,352.884Zm3.2-1.018a15.029,15.029,0,0,0,.608,4.048,10.642,10.642,0,0,0,1.816,3.716,7.808,7.808,0,0,0,2.786,2.3,8.85,8.85,0,0,0,7.843-.339,6.875,6.875,0,0,0,2.832-3.4,13.218,13.218,0,0,0,.97-5.173,13.8,13.8,0,0,0-1.108-5.628,7.446,7.446,0,0,0-3.156-3.655,9.172,9.172,0,0,0-4.542-1.141,7.613,7.613,0,0,0-5.9,2.343Q269.857,347.288,269.858,351.867Z" transform="translate(-171.925 -341.273)"/><path d="M297.358,341.943l.124-.107q2.816.123,4.387.123,1.74,0,4.7-.108,1.093-.031,1.586-.031,3.894,0,5.28,1.419a4.647,4.647,0,0,1,1.385,3.361,5.283,5.283,0,0,1-.677,2.545,6.043,6.043,0,0,1-2,2.135,9.971,9.971,0,0,1-3.648,1.334q.43.6,1.554,2.081l2.186,2.9q1.063,1.433,2.278,3.03a9.751,9.751,0,0,0,1.57,1.8,1.948,1.948,0,0,0,.608.254,4.952,4.952,0,0,0,.808.046l.123.124v.724l-.139.139a14.464,14.464,0,0,0-1.755-.092q-1.093,0-2.386.092-1.062-1.295-3.34-4.487-2.647-3.7-5.418-6.862l.153-.477q.8.046,1.247.046a6.249,6.249,0,0,0,4.172-1.28,4.4,4.4,0,0,0,1.508-3.547,3.64,3.64,0,0,0-1.355-3.076,5.868,5.868,0,0,0-3.664-1.04,10.173,10.173,0,0,0-3.048.447q-.231.34-.231,5.782v7.139l.016,3.007a20.624,20.624,0,0,0,.092,2.251,1.435,1.435,0,0,0,.223.679,1.16,1.16,0,0,0,.562.285,12.177,12.177,0,0,0,2.047.177l.123.093v.771l-.123.124q-.078,0-2.71-.093-1.093-.032-1.709-.031-.478,0-4.4.124l-.124-.124v-.771l.124-.093a15.851,15.851,0,0,0,1.908-.154,1.407,1.407,0,0,0,.639-.239,1.212,1.212,0,0,0,.261-.624,14.329,14.329,0,0,0,.116-2.128l.015-3.253v-7.139l-.031-3.006q-.015-1.758-.085-2.267a1.4,1.4,0,0,0-.216-.678,1.113,1.113,0,0,0-.562-.277,13.181,13.181,0,0,0-2.047-.17l-.124-.107Z" transform="translate(-178.598 -341.388)"/></g><g transform="translate(342.743 337.431)"><path d="M419.562,355.1v.463l-.062.185-.754.447a.949.949,0,0,0-.323.263,5.323,5.323,0,0,0-.115.917q-.069.826-.07,2.012a27.373,27.373,0,0,0,.169,2.914l-.092.154a23.985,23.985,0,0,1-8.666,1.619,14.339,14.339,0,0,1-6.173-1.3,10.229,10.229,0,0,1-4.372-3.84,11.028,11.028,0,0,1-1.616-6.044,10.633,10.633,0,0,1,3.641-8.48,14.022,14.022,0,0,1,9.505-3.146,19.546,19.546,0,0,1,7.743,1.465l.108.169a36.786,36.786,0,0,0-.647,4.333l-.124.108h-.708l-.124-.124-.077-1.635a5.028,5.028,0,0,0-.1-.94,1.089,1.089,0,0,0-.331-.363,7.687,7.687,0,0,0-1.424-.709,11.492,11.492,0,0,0-2.3-.71,13.033,13.033,0,0,0-2.478-.223,10.329,10.329,0,0,0-4.988,1.172,7.568,7.568,0,0,0-3.271,3.415,11.168,11.168,0,0,0-1.1,4.988A11.934,11.934,0,0,0,402,357.5a8.992,8.992,0,0,0,3.4,3.816,9.587,9.587,0,0,0,5.157,1.373,13.856,13.856,0,0,0,2.609-.255,7.734,7.734,0,0,0,2.193-.717,9.01,9.01,0,0,0,.139-1.99v-1.711a4.371,4.371,0,0,0-.154-1.519,1.026,1.026,0,0,0-.761-.424,18.443,18.443,0,0,0-2.625-.154l-.139-.139V355.1l.139-.139.939.031q2.417.078,3.941.078.878,0,2.571-.092Z" transform="translate(-397.487 -341.269)"/><path d="M426.952,363.691l-.138-.124v-.8l.138-.123a6.621,6.621,0,0,0,1.447-.115,1.23,1.23,0,0,0,.577-.4A12.655,12.655,0,0,0,430,360.16l1.616-3.516,4.187-9.5q1.186-2.79,2.355-5.582h1l6.573,15.481.877,2.066q.385.878.886,1.912a5.847,5.847,0,0,0,.693,1.218,1.3,1.3,0,0,0,.477.285,5.134,5.134,0,0,0,1.27.115l.123.123v.8l-.123.124q-1.632-.139-2.94-.139-2.555.076-5.111.139l-.123-.124v-.8l.123-.123a12.31,12.31,0,0,0,2.155-.147.512.512,0,0,0,.43-.532,2.617,2.617,0,0,0-.215-.894l-1.893-4.7h-8.913l-1.678,3.947a4.641,4.641,0,0,0-.446,1.558.6.6,0,0,0,.416.57,7,7,0,0,0,2.094.2l.139.123v.8l-.124.124q-1.985-.125-3.479-.124Q428.676,363.567,426.952,363.691Zm7.02-8.65h7.789l-3.864-9.3Z" transform="translate(-403.861 -341.333)"/><path d="M485.728,341.9l.139.123v.756l-.123.107a11.259,11.259,0,0,0-2.1.17.957.957,0,0,0-.577.408,2.616,2.616,0,0,0-.193,1.118q-.024.833-.085,4.7v7.108q0,1.542.046,3.485a9.494,9.494,0,0,0,.193,2.259.9.9,0,0,0,.531.463,9.7,9.7,0,0,0,2.186.192l.123.108v.756l-.139.123q-2.51-.139-4.372-.139-1.263,0-4.3.139l-.139-.123v-.74l.124-.124a11.2,11.2,0,0,0,2.1-.169.956.956,0,0,0,.578-.408,2.721,2.721,0,0,0,.2-1.134q.031-.848.077-4.687V345.075l-5.31,11.133q-2,4.179-3.495,7.864h-.6q-.863-1.99-1.417-3.177l-7.358-15.311v10.778q0,1.511.038,3.477a8.868,8.868,0,0,0,.193,2.274.97.97,0,0,0,.539.463,8.95,8.95,0,0,0,2.186.185l.123.123v.741l-.139.139-.985-.046q-1.525-.078-2.617-.078-.493,0-3.679.124l-.123-.124v-.74l.123-.139a10.6,10.6,0,0,0,2.094-.154.967.967,0,0,0,.577-.416,2.463,2.463,0,0,0,.2-1.094q.023-.8.07-4.733V349.3q0-1.4-.039-3.416a9.817,9.817,0,0,0-.185-2.328.93.93,0,0,0-.531-.47,9,9,0,0,0-2.186-.185l-.123-.123v-.74l.138-.139q1.062.076,2.863.077,1.693,0,2.956-.077,1.293,2.992,2.478,5.412l5.835,12,5.264-10.993q2.14-4.456,2.879-6.414,1.478.076,2.909.077Q483.974,341.976,485.728,341.9Z" transform="translate(-410.5 -341.405)"/><path d="M494.989,341.84l1.924.061q1.892.062,2.478.062.524,0,4.418-.123l.123.107v.771l-.123.107q-1.062.032-1.64.093a1.985,1.985,0,0,0-.839.232,1.088,1.088,0,0,0-.346.793,13.708,13.708,0,0,0-.085,1.735l-.031,3.547v7.139l.016,3.007a20.814,20.814,0,0,0,.092,2.251,1.434,1.434,0,0,0,.223.679,1.163,1.163,0,0,0,.562.285,12.175,12.175,0,0,0,2.047.177l.123.093v.771l-.123.124q-.077,0-2.71-.093-1.093-.032-1.709-.031-.478,0-4.4.124l-.123-.124v-.771l.123-.093a15.892,15.892,0,0,0,1.909-.154,1.408,1.408,0,0,0,.639-.239,1.214,1.214,0,0,0,.261-.624,14.216,14.216,0,0,0,.116-2.128l.016-3.253v-7.139l-.031-3.006q-.015-1.758-.084-2.267a1.394,1.394,0,0,0-.216-.678,1.113,1.113,0,0,0-.561-.278,13.2,13.2,0,0,0-2.047-.17l-.123-.107v-.771Z" transform="translate(-418.652 -341.392)"/><path d="M507.812,363.748l-.139-.139V362.9l.139-.123a10.68,10.68,0,0,0,1.5-.108,1.134,1.134,0,0,0,.724-.308,1.453,1.453,0,0,0,.215-.694q.054-.479.108-2.159t.053-2.405V344.644a1.936,1.936,0,0,0-.284-1.164,1.25,1.25,0,0,0-.778-.478,10.35,10.35,0,0,0-1.678-.116l-.123-.123v-.724l.123-.139q2.125.076,2.786.077,1.555,0,2.555-.077l4.911,6.383,7.219,9.067q1.308,1.65,2.663,3.129V348.545q0-.555-.054-2.367t-.131-2.3a1.11,1.11,0,0,0-.269-.655,1.5,1.5,0,0,0-.723-.254,10.747,10.747,0,0,0-1.44-.1l-.123-.124v-.709l.123-.139q1.247.076,3.556.077,2.108,0,3.063-.077l.139.139v.709l-.124.124a10.277,10.277,0,0,0-1.57.115.993.993,0,0,0-.693.332,1.748,1.748,0,0,0-.192.679q-.055.447-.108,2.128t-.054,2.421v7.324l.015,4.24q.031,2.081.062,4.178a24.758,24.758,0,0,0-2.663-.648l-1.093-1.3-3.278-4.009-10.437-13.06V357.1q0,.709.054,2.528a20.416,20.416,0,0,0,.131,2.205,1.25,1.25,0,0,0,.2.532,1.162,1.162,0,0,0,.531.27,7.486,7.486,0,0,0,1.685.139l.124.123v.725l-.124.123a21.641,21.641,0,0,0-2.586-.108Q509.537,363.639,507.812,363.748Z" transform="translate(-421.409 -341.405)"/><path d="M562.551,355.1v.463l-.062.185-.754.447a.958.958,0,0,0-.323.263,5.319,5.319,0,0,0-.115.917q-.069.826-.07,2.012a27.194,27.194,0,0,0,.17,2.914l-.092.154a23.992,23.992,0,0,1-8.667,1.619,14.341,14.341,0,0,1-6.173-1.3,10.229,10.229,0,0,1-4.372-3.84,11.035,11.035,0,0,1-1.616-6.044,10.635,10.635,0,0,1,3.641-8.48,14.022,14.022,0,0,1,9.505-3.146,19.546,19.546,0,0,1,7.743,1.465l.108.169a36.991,36.991,0,0,0-.646,4.333l-.123.108H560l-.124-.124-.077-1.635a5.137,5.137,0,0,0-.1-.94,1.1,1.1,0,0,0-.332-.363,7.691,7.691,0,0,0-1.424-.709,11.5,11.5,0,0,0-2.3-.71,13.049,13.049,0,0,0-2.479-.223,10.329,10.329,0,0,0-4.988,1.172,7.572,7.572,0,0,0-3.271,3.415,11.168,11.168,0,0,0-1.1,4.988,11.934,11.934,0,0,0,1.185,5.281,9,9,0,0,0,3.4,3.816,9.587,9.587,0,0,0,5.157,1.373,13.855,13.855,0,0,0,2.609-.255,7.733,7.733,0,0,0,2.193-.717,9.017,9.017,0,0,0,.138-1.99v-1.711a4.4,4.4,0,0,0-.153-1.519,1.03,1.03,0,0,0-.762-.424,18.443,18.443,0,0,0-2.625-.154l-.139-.139V355.1l.139-.139.939.031q2.417.078,3.941.078.878,0,2.571-.092Z" transform="translate(-428.566 -341.269)"/></g></g></svg>