<svg xmlns="http://www.w3.org/2000/svg" width="298.495" height="36" viewBox="0 0 298.495 36"><g transform="translate(-145.617 -221.457)"><g transform="translate(278.84 221.456)"><path d="M359.748,234.245a5.8,5.8,0,0,1,.281-1.966c.029-.086.064-.171.1-.255.011-.027.02-.066.06-.055s.025.044.025.068c0,.073,0,.145-.007.217a8.756,8.756,0,0,0,0,2.092,7.9,7.9,0,0,0,.505,2.075,11.533,11.533,0,0,0,.768,1.487c.638,1.068,1.367,2.076,2.045,3.118a19.465,19.465,0,0,1,1.273,2.119,11.462,11.462,0,0,1,.756,2.147c.162.631.246,1.276.367,1.913a22.35,22.35,0,0,0,1.1,4.065,10.308,10.308,0,0,0,.924,1.765c.072.111.137.228.2.346.023.044.058.1.006.146s-.1.009-.149-.013a1.942,1.942,0,0,1-.492-.346,6.206,6.206,0,0,1-1.4-1.979,16.074,16.074,0,0,1-.976-2.806c-.2-.778-.333-1.568-.492-2.353a11.232,11.232,0,0,0-1.322-3.5c-.7-1.195-1.456-2.362-2.138-3.57a12.47,12.47,0,0,1-1.171-2.617,7.564,7.564,0,0,1-.232-1.334c-.028-.255-.02-.509-.026-.763" transform="translate(-341.889 -224.551)" fill="#ff009f"/><path d="M354.376,225.341a8.305,8.305,0,0,1,.1-1.484,6.84,6.84,0,0,1,.6-2.083c.047-.092.1-.178.157-.265.017-.028.037-.066.079-.049s.026.052.027.081a1.665,1.665,0,0,1-.056.382,12.226,12.226,0,0,0-.2,2.62,16.515,16.515,0,0,0,.188,2.007,24.34,24.34,0,0,0,.548,2.609q.43,1.654.933,3.287c.157.5.289,1.016.469,1.513a9.316,9.316,0,0,0,.483,1.094,1.7,1.7,0,0,1,.107.276.122.122,0,0,1-.015.13c-.04.04-.087.016-.128,0a1.859,1.859,0,0,1-.615-.48,5.773,5.773,0,0,1-1.022-1.789,19.942,19.942,0,0,1-.693-1.93c-.185-.611-.356-1.226-.494-1.849-.109-.494-.208-.989-.286-1.489-.075-.48-.124-.964-.164-1.449-.026-.327-.022-.653-.028-1.132" transform="translate(-340.307 -221.456)" fill="#ff009f"/><path d="M349.751,249.039c-.635.016-1.27,0-1.9-.028-.7-.029-1.393-.075-2.089-.145-.468-.047-.938-.085-1.4-.149s-.915-.145-1.368-.241a18.12,18.12,0,0,1-1.9-.51,10.654,10.654,0,0,1-1.789-.737,1.908,1.908,0,0,1-.181-.119c-.021-.015-.044-.038-.034-.066s.048-.03.078-.025c.195.033.391.061.583.1,1.1.234,2.2.433,3.314.567q.78.094,1.565.143c.364.022.729.029,1.093.045.652.029,1.3.064,1.956.092q.716.031,1.432.09c.556.047,1.111.1,1.662.192.344.056.694.08,1.04.126a2.261,2.261,0,0,1,.548.1c.044.018.1.028.107.09s-.037.094-.083.125a1.96,1.96,0,0,1-.725.258,5.453,5.453,0,0,1-1.235.1c-.221,0-.441,0-.662,0" transform="translate(-335.803 -228.982)" fill="#ff009f"/><path d="M348.409,237.772a4.206,4.206,0,0,1-1.188-.259,11.177,11.177,0,0,1-3.57-2.048,20.563,20.563,0,0,1-2.111-2.045,18.006,18.006,0,0,1-1.766-2.277,3.853,3.853,0,0,1-.361-.659c-.015-.037-.049-.08,0-.113s.073.007.1.031c.091.074.185.145.27.226.253.241.5.485.754.73.7.682,1.408,1.354,2.149,1.99.785.674,1.588,1.324,2.433,1.921s1.729,1.118,2.615,1.644a6.67,6.67,0,0,1,.812.528c.076.061.183.126.145.234s-.162.094-.26.1h-.023" transform="translate(-335.895 -224.078)" fill="#ff009f"/><path d="M350.207,222.579a10.918,10.918,0,0,0,.081,1.8,17.368,17.368,0,0,0,1.171,4.039c.449,1.111.868,2.232,1.228,3.375a8.18,8.18,0,0,1,.318,1.317.8.8,0,0,1-.01.361c-.036.111-.095.13-.189.064a1.236,1.236,0,0,1-.279-.329,11.559,11.559,0,0,1-.923-1.7c-.431-.916-.8-1.858-1.139-2.81a15.177,15.177,0,0,1-.629-2.329,9.558,9.558,0,0,1-.171-2.359,4.828,4.828,0,0,1,.351-1.652c.028-.064.049-.171.12-.16.088.013.058.125.068.195a1.273,1.273,0,0,1,0,.194" transform="translate(-338.917 -221.672)" fill="#ff009f"/><path d="M344.176,257.422c-.045,0-.088.012-.105-.026s.025-.068.052-.09a6.084,6.084,0,0,1,.738-.493,30.356,30.356,0,0,1,3.279-1.647c.747-.324,1.5-.642,2.27-.894a12.43,12.43,0,0,1,2.47-.524,8.25,8.25,0,0,1,1.627-.028,2.414,2.414,0,0,1,.646.13.791.791,0,0,1,.095.04c.054.029.115.06.112.131s-.061.1-.116.129a2.787,2.787,0,0,1-.623.181c-.807.169-1.616.328-2.418.519-1.006.24-1.992.549-2.97.888q-1.869.648-3.737,1.294c-.391.135-.784.266-1.185.368-.048.012-.1.016-.134.023" transform="translate(-337.272 -230.948)" fill="#ff009f"/><path d="M349.292,242.125a5.11,5.11,0,0,1-1.247-.191,15.512,15.512,0,0,1-3.159-1.2c-.892-.447-1.738-.972-2.585-1.5-.888-.55-1.761-1.125-2.6-1.746a5.44,5.44,0,0,1-.572-.47c-.031-.03-.081-.062-.049-.114s.078-.019.115-.009a5.6,5.6,0,0,1,.881.343c1.425.643,2.816,1.353,4.214,2.049,1.032.514,2.078.993,3.13,1.461q.776.345,1.542.714a2.393,2.393,0,0,1,.655.407c.042.042.1.082.076.153s-.095.087-.158.094a2.237,2.237,0,0,1-.238,0" transform="translate(-335.8 -225.999)" fill="#ff009f"/><path d="M348.406,233.426a1.758,1.758,0,0,1-.6-.275,9.981,9.981,0,0,1-1.767-1.47,15.429,15.429,0,0,1-2.246-2.921,18.01,18.01,0,0,1-1.428-2.914,7.371,7.371,0,0,1-.376-1.266.554.554,0,0,1-.011-.056c0-.038-.011-.082.032-.1s.07.014.1.044a3.259,3.259,0,0,1,.308.452c.533.868,1.058,1.741,1.633,2.582.54.792,1.119,1.555,1.726,2.3.455.555.926,1.1,1.395,1.641a18.2,18.2,0,0,1,1.215,1.48,1.3,1.3,0,0,1,.176.332c.037.113-.018.183-.149.176" transform="translate(-336.656 -222.328)" fill="#ff009f"/><path d="M383.106,259.021a2.589,2.589,0,0,1-1.169-.192c-.064-.03-.171-.049-.157-.139s.119-.078.192-.088c.368-.052.741-.069,1.109-.129a2.843,2.843,0,0,0,1.639-.721,4.369,4.369,0,0,0,.861-1.253,8.3,8.3,0,0,0,.513-1.615c.25-1.046.45-2.1.729-3.142a8.423,8.423,0,0,1,.8-2.041,3.735,3.735,0,0,1,.552-.738c.023-.025.047-.076.09-.045s0,.064-.01.094c-.14.349-.318.682-.443,1.038a10.543,10.543,0,0,0-.447,1.73c-.073.423-.15.846-.213,1.271q-.129.873-.286,1.741a8.362,8.362,0,0,1-.732,2.365,3.311,3.311,0,0,1-1.865,1.7,2.744,2.744,0,0,1-.835.164c-.11,0-.22,0-.33,0" transform="translate(-348.377 -229.539)" fill="#ff009f"/><path d="M344.79,253.274c-.053,0-.107,0-.159,0s-.081,0-.09-.051.028-.058.056-.078a3.4,3.4,0,0,1,.651-.327,20.956,20.956,0,0,1,2.259-.784c.576-.169,1.157-.321,1.743-.45a15.467,15.467,0,0,1,2-.3,13.81,13.81,0,0,1,1.47-.035,4.93,4.93,0,0,1,1.294.178.932.932,0,0,1,.229.1c.115.071.118.148,0,.227a1.334,1.334,0,0,1-.479.173c-.695.153-1.4.234-2.1.326-.67.088-1.341.18-2.009.279-.721.107-1.441.223-2.162.339-.5.081-1,.176-1.5.254-.4.061-.794.127-1.2.152" transform="translate(-337.412 -230.226)" fill="#ff009f"/><path d="M349.2,245.945a8.277,8.277,0,0,1-1.891-.272,13.156,13.156,0,0,1-2.156-.732,15.506,15.506,0,0,1-2.829-1.611,10.646,10.646,0,0,1-.977-.8,2.7,2.7,0,0,1-.231-.267c-.021-.025-.052-.054-.025-.09s.063-.02.1-.012a3.123,3.123,0,0,1,.5.2c.579.27,1.154.548,1.734.814a25.2,25.2,0,0,0,2.493.981c.987.331,1.976.656,2.962.991a4.057,4.057,0,0,1,.954.43c.066.044.129.091.119.179s-.093.113-.165.136a1.891,1.891,0,0,1-.577.052" transform="translate(-336.393 -227.549)" fill="#ff009f"/><path d="M356.084,260.133a2.9,2.9,0,0,1,.6.051.344.344,0,0,1,.086.029c.059.026.13.046.137.122s-.051.123-.107.164a3.116,3.116,0,0,1-.849.382c-1.065.363-2.158.629-3.249.9-1,.25-1.993.543-2.967.89-.522.186-1.046.366-1.57.548-.061.021-.125.033-.188.049-.037.009-.078.022-.1-.016s0-.073.025-.1a1.817,1.817,0,0,1,.377-.329,13.519,13.519,0,0,1,3.132-1.664,16,16,0,0,1,2.524-.738,12.729,12.729,0,0,1,1.8-.267c.121-.008.242-.02.35-.019" transform="translate(-338.391 -232.844)" fill="#ff009f"/><path d="M354.539,257.126a3.644,3.644,0,0,1,1.147.135.573.573,0,0,1,.2.1c.112.092.1.191-.025.26a2.27,2.27,0,0,1-.572.189c-.888.2-1.783.38-2.66.629-.61.174-1.209.385-1.808.6-1.021.361-2.014.8-3.021,1.191a1.886,1.886,0,0,1-.389.128c-.047.008-.106.037-.138-.012s.026-.1.059-.133a3.555,3.555,0,0,1,.485-.43,16.027,16.027,0,0,1,3.813-2.1,8.392,8.392,0,0,1,2.086-.512,5.8,5.8,0,0,1,.821-.044" transform="translate(-338.214 -231.959)" fill="#ff009f"/><path d="M385.879,252.363a9.652,9.652,0,0,1,.648-3.5,5.8,5.8,0,0,1,1.288-2.026.8.8,0,0,1,.158-.13c.024-.014.049-.027.074-.006s.013.049,0,.073c-.076.162-.149.325-.227.485a10.6,10.6,0,0,0-.836,2.335c-.1.445-.162.9-.225,1.348-.09.639-.166,1.28-.237,1.922a6.683,6.683,0,0,1-.155.943.6.6,0,0,1-.081.188c-.052.073-.113.073-.164,0a.582.582,0,0,1-.079-.176,5.063,5.063,0,0,1-.164-1.456" transform="translate(-349.584 -228.887)" fill="#ff009f"/><path d="M383.029,252.749a6.972,6.972,0,0,1,.989-3.432,3.213,3.213,0,0,1,.469-.629c.033-.033.069-.09.123-.051s.011.085,0,.126c-.147.476-.322.942-.452,1.423a9.776,9.776,0,0,0-.32,1.815,9.494,9.494,0,0,0-.041,1.115c.02.474.051.947.1,1.419a3.251,3.251,0,0,1,.027.58.353.353,0,0,1-.027.121c-.034.074-.089.092-.154.035a.9.9,0,0,1-.2-.244,4.487,4.487,0,0,1-.485-1.674c-.022-.2-.021-.4-.028-.6" transform="translate(-348.745 -229.456)" fill="#ff009f"/><path d="M381.2,256.347c0,.135-.083.195-.2.147a1.53,1.53,0,0,1-.564-.47,4.1,4.1,0,0,1-.7-1.208,6.716,6.716,0,0,1-.337-1.51,6.867,6.867,0,0,1-.049-1.149,2.489,2.489,0,0,1,.083-.586c.01-.035.012-.083.059-.087s.067.044.083.082a4.5,4.5,0,0,1,.184.634,18.386,18.386,0,0,0,.815,2.644c.153.372.326.736.49,1.1a2.369,2.369,0,0,1,.131.4" transform="translate(-347.661 -230.298)" fill="#ff009f"/><path d="M378.641,257.451a1.836,1.836,0,0,1-.651-.235,3.22,3.22,0,0,1-1.214-1.28,5.659,5.659,0,0,1-.589-1.524,2.625,2.625,0,0,1-.07-.723.563.563,0,0,1,.008-.091c.01-.04.016-.09.065-.1s.061.04.081.07c.135.217.235.452.349.678a10.221,10.221,0,0,0,1.3,1.973,10.774,10.774,0,0,0,.744.8.746.746,0,0,1,.138.18c.085.159.035.248-.166.249" transform="translate(-346.709 -230.892)" fill="#ff009f"/><path d="M371.772,256.743a4.783,4.783,0,0,1,1.231.267,9.687,9.687,0,0,1,2.278,1.157c.155.1.3.226.441.341a.8.8,0,0,1,.181.246c.069.125-.019.232-.183.217a2.266,2.266,0,0,1-.531-.123,7.943,7.943,0,0,1-1.7-.869c-.524-.339-1.077-.625-1.612-.943-.068-.041-.135-.084-.2-.128-.037-.025-.085-.053-.073-.105s.077-.051.124-.059a.241.241,0,0,1,.045,0" transform="translate(-345.38 -231.846)" fill="#ff009f"/><path d="M371.756,259.388a5.1,5.1,0,0,1,2.042.424,2.092,2.092,0,0,1,.638.43c.129.135.128.261.008.338a.337.337,0,0,1-.186.042,2.856,2.856,0,0,1-.944-.195c-.631-.217-1.259-.445-1.878-.7a1.173,1.173,0,0,1-.261-.138c-.081-.061-.075-.109.023-.142a2.038,2.038,0,0,1,.559-.061" transform="translate(-345.238 -232.625)" fill="#ff009f"/><path d="M351.98,270.537a1.374,1.374,0,0,1,.346-.159,5.5,5.5,0,0,1,2.249-.238,12.5,12.5,0,0,1,1.965.317c.814.183,1.631.359,2.443.551a10.354,10.354,0,0,0,2.91.227,17.111,17.111,0,0,0,1.765-.206,8.728,8.728,0,0,0,1.615-.381c.254-.091.5-.2.754-.293.06-.023.141-.079.184-.007s-.04.124-.089.166a3.015,3.015,0,0,1-.682.411,9.065,9.065,0,0,1-2.059.65,14.517,14.517,0,0,1-1.683.2,9.554,9.554,0,0,1-1.511-.062,14.519,14.519,0,0,1-2.536-.531c-.793-.209-1.58-.437-2.383-.607a8.179,8.179,0,0,0-2.1-.187,5.143,5.143,0,0,0-1.034.162,1.353,1.353,0,0,1-.142.022l-.008-.032" transform="translate(-339.603 -235.785)" fill="#ff009f"/><path d="M338.275,267.834a18.707,18.707,0,0,0-2.055.153c-.554.071-1.1.176-1.655.248-.015,0-.03.006-.045.007s-.068.013-.079-.024.026-.052.052-.063c.121-.054.243-.109.367-.155a11.76,11.76,0,0,1,2.551-.618,6.111,6.111,0,0,1,2.219.065,2.6,2.6,0,0,1,1.2.6.988.988,0,0,1,.186.23c.02.032.04.072.013.107s-.076.028-.115.011c-.171-.072-.341-.151-.514-.219a4.792,4.792,0,0,0-1.556-.31c-.224-.011-.447-.04-.569-.029" transform="translate(-334.437 -234.959)" fill="#ff009f"/><path d="M373.374,268.972c.049-.03.09,0,.129.016a2.424,2.424,0,0,0,1.783-.008,9.12,9.12,0,0,0,1.56-.774,8.018,8.018,0,0,1,1.657-.778,2.188,2.188,0,0,1,1.18-.071.623.623,0,0,1,.209.088c.065.047.056.091-.017.111a1.722,1.722,0,0,1-.246.047,4,4,0,0,0-1.321.413c-.594.3-1.182.611-1.777.909a4.638,4.638,0,0,1-1.724.52,2.026,2.026,0,0,1-1.355-.381c-.031-.022-.073-.042-.078-.092" transform="translate(-345.902 -234.956)" fill="#ff009f"/><path d="M380.409,263.9c-.013.059-.056.035-.092.02-.226-.089-.45-.182-.677-.267a7.574,7.574,0,0,0-.871-.26,6.792,6.792,0,0,0-1.625-.14,4.2,4.2,0,0,1-.605-.075,6.961,6.961,0,0,1-1.521-.4,5.7,5.7,0,0,1-.929-.456.494.494,0,0,1-.049-.029c-.019-.017-.053-.033-.042-.061s.052-.018.079-.009c.24.085.481.163.727.227s.48.131.726.176c.316.059.632.1.951.143a4.009,4.009,0,0,0,.622.03,8.216,8.216,0,0,1,1.079.056,3.475,3.475,0,0,1,1.339.333,3.116,3.116,0,0,1,.809.582.254.254,0,0,1,.078.133" transform="translate(-346.085 -233.454)" fill="#ff009f"/><path d="M342.9,267.108a5,5,0,0,1-.625,0,7.171,7.171,0,0,1-1.457-.331c-.35-.124-.71-.211-1.07-.3-.4-.1-.806-.176-1.209-.261-.225-.047-.454-.068-.682-.1-.035,0-.089.006-.088-.047s.054-.043.09-.045a9.172,9.172,0,0,1,1.206.007,10.956,10.956,0,0,1,1.266.185c.474.1.937.247,1.413.336.24.044.481.087.725.115.358.04.717.063,1.074.1a3.591,3.591,0,0,1,.609.055c.031.008.076,0,.08.048s-.032.057-.063.072a1.791,1.791,0,0,1-.423.129,3.481,3.481,0,0,1-.847.048" transform="translate(-335.417 -234.571)" fill="#ff009f"/><path d="M348.7,269.822a3.208,3.208,0,0,1-1.624-.416.3.3,0,0,1-.03-.018c-.04-.032-.117-.059-.1-.111s.093-.011.14,0a4.9,4.9,0,0,0,1.581.119,7.77,7.77,0,0,0,1.586-.4c.453-.155.9-.331,1.348-.494.083-.03.2-.079.249.013s-.059.145-.115.2a3.4,3.4,0,0,1-1.063.672,5.623,5.623,0,0,1-1.42.4,2.723,2.723,0,0,1-.557.037" transform="translate(-338.121 -235.296)" fill="#ff009f"/><path d="M349.335,268.572a6.914,6.914,0,0,1-1.915-.3,5.426,5.426,0,0,1-.682-.255,1.324,1.324,0,0,1-.119-.066.046.046,0,0,1-.029-.045c0-.028.027-.035.049-.037a.883.883,0,0,1,.114,0c.421.014.84.065,1.259.1.279.024.561.034.84.064a4.261,4.261,0,0,1,1.146.223c.071.027.162.061.156.144s-.111.107-.186.125a2.148,2.148,0,0,1-.634.056" transform="translate(-338.016 -235.12)" fill="#ff009f"/><path d="M340.866,268.8a4.166,4.166,0,0,1,1.443.233.75.75,0,0,1,.212.111c.089.072.078.157-.025.2a.651.651,0,0,1-.233.052,6.758,6.758,0,0,1-1.35-.1c-.387-.057-.778-.085-1.167-.126-.083-.009-.165-.022-.247-.037-.031-.006-.078,0-.079-.049s.04-.052.071-.066a1.69,1.69,0,0,1,.38-.118,4.42,4.42,0,0,1,1-.1" transform="translate(-335.905 -235.395)" fill="#ff009f"/><path d="M371.415,266.867a3.5,3.5,0,0,1-1.41-.373c-.053-.028-.146-.053-.123-.125s.118-.055.183-.048a11.027,11.027,0,0,0,1.331.039c.422-.006.839-.073,1.259-.1a.623.623,0,0,1,.237.016c.112.035.131.1.055.183a.651.651,0,0,1-.188.145,2.552,2.552,0,0,1-1.343.267" transform="translate(-344.873 -234.646)" fill="#ff009f"/><path d="M343.392,270.869c-.159,0-.319,0-.478,0-.052,0-.132.008-.144-.061s.063-.079.107-.1a2.254,2.254,0,0,1,.7-.233,3.762,3.762,0,0,1,1.8.129.685.685,0,0,1,.223.112c.1.078.093.163-.023.215a.888.888,0,0,1-.345.063,6.478,6.478,0,0,1-1.226-.092,5.256,5.256,0,0,0-.615-.028" transform="translate(-336.891 -235.872)" fill="#ff009f"/><path d="M382.832,266.7a3.656,3.656,0,0,1-1.19-.19,1.441,1.441,0,0,1-.2-.1.128.128,0,0,1-.076-.13c.008-.057.055-.076.1-.1a1.1,1.1,0,0,1,.44-.05,5.571,5.571,0,0,1,1.155.107,1.657,1.657,0,0,1,.882.445.754.754,0,0,1,.175.3c.009.032.032.069,0,.1s-.064-.006-.09-.025a1.866,1.866,0,0,0-.534-.277,1.71,1.71,0,0,0-.659-.08" transform="translate(-348.254 -234.61)" fill="#ff009f"/><path d="M383.612,265.018a1.574,1.574,0,0,1,1.451,1.089,1.292,1.292,0,0,1,.051.761.585.585,0,0,1-.025.087c-.015.032-.022.082-.072.075s-.041-.049-.05-.081a2.793,2.793,0,0,0-.312-.755,1.9,1.9,0,0,0-.794-.646c-.164-.08-.329-.156-.492-.237-.062-.031-.13-.072-.116-.152s.092-.1.157-.113a1.887,1.887,0,0,1,.2-.029" transform="translate(-348.81 -234.283)" fill="#ff009f"/><path d="M371.794,268.131c-.064,0-.128,0-.193,0-.027,0-.054-.011-.059-.043a.059.059,0,0,1,.03-.057.9.9,0,0,1,.114-.076c.493-.253.985-.508,1.482-.754a2.106,2.106,0,0,1,.638-.2.385.385,0,0,1,.056-.008c.072,0,.154-.011.192.066s-.021.132-.066.181a2.144,2.144,0,0,1-.624.431,4.229,4.229,0,0,1-1.33.452c-.078.012-.159.013-.238.02v-.008" transform="translate(-345.362 -234.863)" fill="#ff009f"/><path d="M372.865,265.489a8.6,8.6,0,0,1-1.235-.095.3.3,0,0,1-.044-.008c-.042-.015-.1-.02-.106-.073s.05-.072.089-.09a2.98,2.98,0,0,1,.678-.188,3.616,3.616,0,0,1,.907-.053,1.3,1.3,0,0,1,.493.126c.066.032.147.067.142.159s-.092.123-.168.147a2.311,2.311,0,0,1-.756.074" transform="translate(-345.344 -234.27)" fill="#ff009f"/><path d="M373.481,264.485a12.091,12.091,0,0,1-1.653-.233c-.083-.025-.216-.034-.215-.133s.132-.086.212-.105a4.86,4.86,0,0,1,.993-.117,1.3,1.3,0,0,1,.835.25c.075.056.175.116.145.222s-.15.111-.249.115h-.068" transform="translate(-345.384 -233.953)" fill="#ff009f"/><path d="M349.586,267.143a2.566,2.566,0,0,1-1.522-.56c-.037-.03-.087-.062-.064-.121s.073-.048.119-.041c.484.075.973.113,1.452.218a1.144,1.144,0,0,1,.4.159.178.178,0,0,1,.1.154c-.006.071-.068.107-.129.132a.818.818,0,0,1-.359.059" transform="translate(-338.429 -234.695)" fill="#ff009f"/><path d="M373.075,269.029a1.527,1.527,0,0,1-.6-.1c-.037-.016-.089-.026-.088-.077s.053-.067.1-.079c.315-.085.636-.15.942-.266a7.21,7.21,0,0,1,.691-.229.673.673,0,0,1,.248-.024c.111.013.148.083.1.184a.773.773,0,0,1-.365.329,2.05,2.05,0,0,1-1.025.263" transform="translate(-345.611 -235.234)" fill="#ff009f"/><path d="M374.146,263.431a1.479,1.479,0,0,1-.881-.373,3.349,3.349,0,0,1-.537-.526.234.234,0,0,1-.035-.045c-.02-.042-.074-.083-.032-.132s.092-.021.14-.006a5.452,5.452,0,0,1,.893.4,3.423,3.423,0,0,1,.539.319l.018.013c.08.064.163.14.126.246s-.154.091-.231.1" transform="translate(-345.688 -233.492)" fill="#ff009f"/><path d="M380.019,264.331a1.906,1.906,0,0,1,1.039.38.9.9,0,0,0,.477.248c.032,0,.075.009.078.052s-.037.054-.067.068a.446.446,0,0,1-.353.006,4.082,4.082,0,0,1-.5-.294,1.945,1.945,0,0,0-1.272-.243c-.033.006-.085.037-.1-.013s.045-.064.082-.078a1.873,1.873,0,0,1,.615-.126" transform="translate(-347.653 -234.081)" fill="#ff009f"/><path d="M380.886,265.4v.023c0,.1.009.212-.1.258s-.2-.028-.278-.088a.429.429,0,0,1-.064-.065.261.261,0,0,1,0-.377.345.345,0,0,1,.4.044c.057.061.038.135.044.205" transform="translate(-347.96 -234.309)" fill="#ff009f"/></g><g transform="translate(145.617 233.991)"><path d="M163.99,256.888l-.528,1.29a14.3,14.3,0,0,1-6.578,1.568,11.631,11.631,0,0,1-8.139-2.845,9.579,9.579,0,0,1-3.129-7.439,9.808,9.808,0,0,1,1.561-5.529,9.675,9.675,0,0,1,4.122-3.539,13.656,13.656,0,0,1,5.752-1.173,17.292,17.292,0,0,1,3.65.389,15.308,15.308,0,0,1,3.011.93l.1.138a17.7,17.7,0,0,0-.6,3.844l-.1.111h-.653l-.111-.111-.139-2.359a7.5,7.5,0,0,0-2.449-1.256,9.931,9.931,0,0,0-2.991-.451,8.686,8.686,0,0,0-4.2,1.006,7.01,7.01,0,0,0-2.887,2.914,9.748,9.748,0,0,0-1.027,4.669,9.582,9.582,0,0,0,1.207,4.871,8.263,8.263,0,0,0,3.3,3.219,10.142,10.142,0,0,0,4.878,1.124,11.653,11.653,0,0,0,2.373-.236,8.964,8.964,0,0,0,1.894-.583,8.691,8.691,0,0,0,1.45-.847Z" transform="translate(-145.617 -239.222)" fill="#fff"/><path d="M172.877,249.677a12.3,12.3,0,0,1,.6-3.885,9,9,0,0,1,2.033-3.337,9.831,9.831,0,0,1,3.463-2.373,11.853,11.853,0,0,1,4.579-.84,10.709,10.709,0,0,1,7.535,2.574,9.07,9.07,0,0,1,2.8,7.029,11.5,11.5,0,0,1-1.374,5.635,9.619,9.619,0,0,1-3.934,3.885,11.876,11.876,0,0,1-5.752,1.388,11.171,11.171,0,0,1-4.163-.756,8.5,8.5,0,0,1-3.241-2.255,9.169,9.169,0,0,1-1.942-3.469A12.358,12.358,0,0,1,172.877,249.677Zm2.886-.916a13.5,13.5,0,0,0,.548,3.643,9.558,9.558,0,0,0,1.638,3.344,7.037,7.037,0,0,0,2.512,2.075,7.99,7.99,0,0,0,7.07-.306,6.19,6.19,0,0,0,2.553-3.06,11.882,11.882,0,0,0,.874-4.656,12.41,12.41,0,0,0-1-5.065,6.7,6.7,0,0,0-2.845-3.289,8.278,8.278,0,0,0-4.094-1.027,6.867,6.867,0,0,0-5.315,2.109Q175.763,244.64,175.763,248.761Z" transform="translate(-153.644 -239.228)" fill="#fff"/><path d="M203.953,259.516l-.125-.125v-.639l.125-.111a9.65,9.65,0,0,0,1.353-.1,1.024,1.024,0,0,0,.652-.277,1.306,1.306,0,0,0,.195-.625q.049-.43.1-1.942t.049-2.165V242.321a1.738,1.738,0,0,0-.257-1.048,1.123,1.123,0,0,0-.7-.43,9.276,9.276,0,0,0-1.513-.1l-.111-.111v-.653l.111-.125q1.916.07,2.512.07,1.4,0,2.3-.07l4.427,5.745,6.508,8.16q1.179,1.486,2.4,2.817V245.833q0-.5-.049-2.131t-.118-2.067a.992.992,0,0,0-.243-.59,1.361,1.361,0,0,0-.652-.229,9.828,9.828,0,0,0-1.3-.09l-.111-.111v-.639l.111-.125q1.124.07,3.205.07,1.9,0,2.762-.07l.125.125v.639l-.111.111a9.282,9.282,0,0,0-1.415.1.893.893,0,0,0-.624.3,1.583,1.583,0,0,0-.174.61q-.049.4-.1,1.916t-.049,2.179v6.591l.014,3.816q.028,1.873.056,3.761a22.348,22.348,0,0,0-2.4-.583l-.985-1.166-2.956-3.608-9.409-11.754v10.644q0,.638.049,2.275a18.136,18.136,0,0,0,.118,1.985,1.115,1.115,0,0,0,.181.478,1.041,1.041,0,0,0,.478.243,6.772,6.772,0,0,0,1.52.125l.111.111v.652l-.111.112a19.555,19.555,0,0,0-2.331-.1Q205.507,259.418,203.953,259.516Z" transform="translate(-162.724 -239.407)" fill="#fff"/><path d="M235.973,239.878l.111-.1q2.4.112,3.274.111l6.495-.139a16.538,16.538,0,0,1,4.552.521,7.8,7.8,0,0,1,3.157,1.8,8.576,8.576,0,0,1,2.1,2.983,9.274,9.274,0,0,1,.715,3.629,10.962,10.962,0,0,1-.653,3.7,10.758,10.758,0,0,1-1.852,3.282,10.141,10.141,0,0,1-2.734,2.338,9.865,9.865,0,0,1-3.074,1.186,16.515,16.515,0,0,1-3.15.3q-1.083,0-4.08-.083-.985-.028-1.3-.027-.957,0-2.317.111l-.111-.111v-.458l.111-.139a7.46,7.46,0,0,0,.936-.52,10.831,10.831,0,0,0,.195-2.429q.076-2.324.076-3.546v-5.093l-.014-3.15q0-1.027-.027-1.672a5.227,5.227,0,0,0-.1-.923,1.055,1.055,0,0,0-.159-.388.675.675,0,0,0-.291-.188,3.214,3.214,0,0,0-.687-.132l-1.054-.083-.111-.1Zm5.135,18.109a17.034,17.034,0,0,0,3.261.278,10.592,10.592,0,0,0,5.169-1.082,6.73,6.73,0,0,0,2.893-3.206,11.518,11.518,0,0,0,.957-4.787,8.4,8.4,0,0,0-2.1-6.092q-2.1-2.164-6.605-2.165a22.474,22.474,0,0,0-3.58.277q-.112,2.276-.111,5.135V250.7l.028,4.08Q241.025,255.976,241.108,257.987Z" transform="translate(-172.222 -239.378)" fill="#fff"/><path d="M266.656,249.677a12.319,12.319,0,0,1,.6-3.885,9.01,9.01,0,0,1,2.033-3.337,9.835,9.835,0,0,1,3.462-2.373,11.857,11.857,0,0,1,4.58-.84,10.709,10.709,0,0,1,7.535,2.574,9.073,9.073,0,0,1,2.8,7.029,11.5,11.5,0,0,1-1.374,5.635,9.623,9.623,0,0,1-3.934,3.885,11.878,11.878,0,0,1-5.752,1.388,11.177,11.177,0,0,1-4.163-.756,8.494,8.494,0,0,1-3.24-2.255,9.171,9.171,0,0,1-1.943-3.469A12.379,12.379,0,0,1,266.656,249.677Zm2.886-.916a13.5,13.5,0,0,0,.548,3.643,9.558,9.558,0,0,0,1.638,3.344,7.031,7.031,0,0,0,2.512,2.075,7.99,7.99,0,0,0,7.07-.306,6.19,6.19,0,0,0,2.553-3.06,11.883,11.883,0,0,0,.874-4.656,12.41,12.41,0,0,0-1-5.065,6.7,6.7,0,0,0-2.845-3.289,8.279,8.279,0,0,0-4.094-1.027,6.869,6.869,0,0,0-5.315,2.109Q269.542,244.64,269.542,248.761Z" transform="translate(-181.256 -239.228)" fill="#fff"/><path d="M297.358,239.884l.111-.1q2.539.112,3.955.111,1.568,0,4.233-.1.985-.028,1.429-.028,3.51,0,4.76,1.276a4.182,4.182,0,0,1,1.249,3.025,4.746,4.746,0,0,1-.61,2.29,5.436,5.436,0,0,1-1.8,1.922,8.984,8.984,0,0,1-3.289,1.2q.387.541,1.4,1.873l1.971,2.609q.958,1.29,2.054,2.726a8.77,8.77,0,0,0,1.415,1.624,1.756,1.756,0,0,0,.548.229,4.468,4.468,0,0,0,.729.042l.111.111v.652l-.125.125a12.923,12.923,0,0,0-1.582-.083q-.985,0-2.151.083-.958-1.165-3.011-4.039-2.387-3.33-4.885-6.175l.138-.43q.722.042,1.125.042a5.643,5.643,0,0,0,3.761-1.151,3.957,3.957,0,0,0,1.36-3.192,3.273,3.273,0,0,0-1.221-2.769,5.3,5.3,0,0,0-3.3-.936,9.185,9.185,0,0,0-2.747.4,27.992,27.992,0,0,0-.208,5.2v6.425l.014,2.707a18.554,18.554,0,0,0,.083,2.026,1.293,1.293,0,0,0,.2.611,1.041,1.041,0,0,0,.507.256,10.967,10.967,0,0,0,1.846.16l.111.083v.694l-.111.111q-.07,0-2.443-.083-.985-.028-1.54-.027-.431,0-3.969.111l-.111-.111V258.7l.111-.083a14.473,14.473,0,0,0,1.72-.139,1.27,1.27,0,0,0,.576-.215A1.09,1.09,0,0,0,300,257.7a12.858,12.858,0,0,0,.1-1.915l.013-2.928v-6.425l-.027-2.707q-.014-1.582-.076-2.04a1.251,1.251,0,0,0-.195-.61.993.993,0,0,0-.507-.25,11.907,11.907,0,0,0-1.845-.153l-.111-.1Z" transform="translate(-190.296 -239.384)" fill="#fff"/></g><g transform="translate(323.325 233.991)"><path d="M417.387,251.67v.416l-.056.167-.68.4a.856.856,0,0,0-.291.236,4.785,4.785,0,0,0-.1.826q-.062.742-.063,1.811a24.618,24.618,0,0,0,.152,2.623l-.083.139a21.67,21.67,0,0,1-7.813,1.457,12.945,12.945,0,0,1-5.565-1.166,9.217,9.217,0,0,1-3.941-3.456,9.914,9.914,0,0,1-1.457-5.44,9.563,9.563,0,0,1,3.282-7.633,12.657,12.657,0,0,1,8.569-2.831,17.647,17.647,0,0,1,6.98,1.319l.1.152a33.062,33.062,0,0,0-.583,3.9l-.112.1h-.638l-.111-.111-.069-1.471a4.527,4.527,0,0,0-.09-.847.973.973,0,0,0-.3-.326,6.887,6.887,0,0,0-1.283-.638,10.33,10.33,0,0,0-2.075-.639,11.767,11.767,0,0,0-2.234-.2,9.332,9.332,0,0,0-4.5,1.054,6.821,6.821,0,0,0-2.949,3.074,10.037,10.037,0,0,0-.993,4.489,10.729,10.729,0,0,0,1.069,4.753,8.1,8.1,0,0,0,3.067,3.435,8.66,8.66,0,0,0,4.649,1.235,12.566,12.566,0,0,0,2.352-.229,6.956,6.956,0,0,0,1.977-.646,8.086,8.086,0,0,0,.125-1.79v-1.54a3.923,3.923,0,0,0-.139-1.367.925.925,0,0,0-.687-.382,16.655,16.655,0,0,0-2.366-.139l-.125-.125v-.61l.125-.125.847.028q2.179.07,3.552.069.792,0,2.318-.083Z" transform="translate(-397.487 -239.222)" fill="#fff"/><path d="M426.938,259.431l-.125-.111V258.6l.125-.111a5.918,5.918,0,0,0,1.3-.1,1.108,1.108,0,0,0,.52-.361,11.44,11.44,0,0,0,.923-1.77l1.457-3.164,3.775-8.549q1.069-2.511,2.123-5.024h.9l5.925,13.933.791,1.86q.347.791.8,1.721a5.284,5.284,0,0,0,.624,1.1,1.169,1.169,0,0,0,.43.256,4.588,4.588,0,0,0,1.145.1l.111.111v.722l-.111.111q-1.471-.125-2.651-.125-2.3.07-4.607.125l-.111-.111V258.6l.111-.111a11.182,11.182,0,0,0,1.943-.132.461.461,0,0,0,.388-.479,2.353,2.353,0,0,0-.194-.8l-1.707-4.233h-8.035l-1.513,3.552a4.173,4.173,0,0,0-.4,1.4.544.544,0,0,0,.375.514,6.325,6.325,0,0,0,1.887.181l.125.111v.722l-.112.111q-1.79-.111-3.136-.111Q428.492,259.32,426.938,259.431Zm6.328-7.785h7.022l-3.483-8.368Z" transform="translate(-406.122 -239.309)" fill="#fff"/><path d="M482.934,239.851l.125.111v.68l-.111.1a10.169,10.169,0,0,0-1.9.153.86.86,0,0,0-.52.368,2.35,2.35,0,0,0-.174,1.006q-.021.749-.076,4.233v6.4q0,1.387.042,3.136a8.518,8.518,0,0,0,.174,2.033.811.811,0,0,0,.479.416,8.692,8.692,0,0,0,1.971.174l.111.1v.68l-.125.111q-2.263-.125-3.941-.125-1.139,0-3.872.125l-.125-.111v-.666l.112-.111A10.111,10.111,0,0,0,477,258.5a.864.864,0,0,0,.521-.368,2.448,2.448,0,0,0,.181-1.02q.028-.763.069-4.219V242.71l-4.787,10.02q-1.806,3.76-3.15,7.077h-.541q-.778-1.791-1.277-2.859l-6.633-13.78v9.7q0,1.361.035,3.13a7.971,7.971,0,0,0,.174,2.047.876.876,0,0,0,.485.416,8.083,8.083,0,0,0,1.971.167l.111.111v.666l-.125.125-.888-.042q-1.375-.069-2.359-.069-.445,0-3.317.111l-.111-.111v-.666l.111-.125a9.637,9.637,0,0,0,1.887-.139.877.877,0,0,0,.52-.375,2.216,2.216,0,0,0,.181-.985q.021-.722.063-4.261v-6.356q0-1.263-.035-3.073a8.815,8.815,0,0,0-.167-2.1.838.838,0,0,0-.478-.423,8.084,8.084,0,0,0-1.971-.167l-.111-.111v-.667l.125-.125q.958.07,2.581.07,1.526,0,2.665-.07,1.165,2.692,2.234,4.871l5.26,10.8,4.746-9.894q1.929-4.011,2.6-5.774,1.332.07,2.623.07Q481.352,239.921,482.934,239.851Z" transform="translate(-415.116 -239.407)" fill="#fff"/><path d="M494.977,239.792l1.735.056q1.706.056,2.234.056.472,0,3.983-.111l.111.1v.694l-.111.1q-.958.029-1.478.083a1.8,1.8,0,0,0-.756.208.981.981,0,0,0-.312.715,12.319,12.319,0,0,0-.076,1.561l-.028,3.192v6.425l.014,2.707a18.735,18.735,0,0,0,.083,2.026,1.292,1.292,0,0,0,.2.611,1.044,1.044,0,0,0,.507.256,10.972,10.972,0,0,0,1.846.16l.111.083v.694l-.111.111q-.07,0-2.443-.083-.985-.028-1.54-.028-.431,0-3.969.111l-.111-.111v-.694l.111-.083a14.5,14.5,0,0,0,1.721-.139,1.27,1.27,0,0,0,.576-.215,1.09,1.09,0,0,0,.236-.562,12.76,12.76,0,0,0,.1-1.915l.014-2.928V246.44l-.028-2.707q-.014-1.582-.076-2.04a1.251,1.251,0,0,0-.195-.61.993.993,0,0,0-.506-.25,11.91,11.91,0,0,0-1.846-.153l-.111-.1v-.694Z" transform="translate(-426.16 -239.39)" fill="#fff"/><path d="M507.787,259.516l-.125-.125v-.639l.125-.111a9.641,9.641,0,0,0,1.353-.1,1.027,1.027,0,0,0,.653-.277,1.307,1.307,0,0,0,.194-.625q.049-.43.1-1.942t.048-2.165V242.321a1.743,1.743,0,0,0-.256-1.048,1.127,1.127,0,0,0-.7-.43,9.269,9.269,0,0,0-1.513-.1l-.111-.111v-.653l.111-.125q1.916.07,2.512.07,1.4,0,2.3-.07L516.9,245.6l6.508,8.16q1.179,1.486,2.4,2.817V245.833q0-.5-.049-2.131t-.118-2.067a1,1,0,0,0-.243-.59,1.361,1.361,0,0,0-.652-.229,9.852,9.852,0,0,0-1.3-.09l-.111-.111v-.639l.111-.125q1.124.07,3.206.07,1.9,0,2.762-.07l.125.125v.639l-.111.111a9.282,9.282,0,0,0-1.415.1.893.893,0,0,0-.624.3,1.573,1.573,0,0,0-.173.61q-.05.4-.1,1.916t-.049,2.179v6.591l.013,3.816q.029,1.873.056,3.761a22.346,22.346,0,0,0-2.4-.583l-.985-1.166-2.956-3.608-9.409-11.754v10.644q0,.638.049,2.275a18.345,18.345,0,0,0,.118,1.985,1.116,1.116,0,0,0,.181.478,1.041,1.041,0,0,0,.479.243,6.759,6.759,0,0,0,1.519.125l.112.111v.652l-.112.112a19.546,19.546,0,0,0-2.331-.1Q509.341,259.418,507.787,259.516Z" transform="translate(-429.895 -239.407)" fill="#fff"/><path d="M560.376,251.67v.416l-.056.167-.68.4a.864.864,0,0,0-.291.236,4.8,4.8,0,0,0-.1.826q-.063.742-.063,1.811a24.437,24.437,0,0,0,.153,2.623l-.083.139a21.676,21.676,0,0,1-7.813,1.457,12.947,12.947,0,0,1-5.565-1.166,9.217,9.217,0,0,1-3.941-3.456,9.92,9.92,0,0,1-1.457-5.44,9.565,9.565,0,0,1,3.282-7.633,12.657,12.657,0,0,1,8.569-2.831,17.647,17.647,0,0,1,6.98,1.319l.1.152a33.226,33.226,0,0,0-.583,3.9l-.111.1h-.638l-.112-.111-.069-1.471a4.636,4.636,0,0,0-.09-.847.987.987,0,0,0-.3-.326,6.887,6.887,0,0,0-1.283-.638,10.336,10.336,0,0,0-2.074-.639,11.779,11.779,0,0,0-2.234-.2,9.332,9.332,0,0,0-4.5,1.054,6.825,6.825,0,0,0-2.948,3.074,10.036,10.036,0,0,0-.992,4.489,10.728,10.728,0,0,0,1.068,4.753,8.1,8.1,0,0,0,3.067,3.435,8.66,8.66,0,0,0,4.649,1.235,12.565,12.565,0,0,0,2.352-.229,6.956,6.956,0,0,0,1.977-.646,8.086,8.086,0,0,0,.125-1.79v-1.54a3.949,3.949,0,0,0-.138-1.367.929.929,0,0,0-.687-.382,16.654,16.654,0,0,0-2.366-.139l-.125-.125v-.61l.125-.125.847.028q2.179.07,3.552.069.792,0,2.318-.083Z" transform="translate(-439.589 -239.222)" fill="#fff"/></g></g></svg>