<svg xmlns="http://www.w3.org/2000/svg" width="163.471" height="32" viewBox="0 0 163.471 32"><g transform="translate(-22.03 -263.154)"><path d="M32.648,292.947l5.259-14.441-14.931,5.1c-1.689.572-.6-.79-.6-.79l2.316-2.915a3.979,3.979,0,0,1,2.888-1.39,3.979,3.979,0,0,1-2.888-1.39L22.376,274.2s-1.09-1.39.6-.79l14.931,5.1v10a3.785,3.785,0,0,1-1.417,2.806l-3,2.234c0-.027-1.444,1.035-.845-.6m5.259-24.44v10l-5.259-14.441c-.6-1.635.817-.572.817-.572l3,2.234a3.68,3.68,0,0,1,1.444,2.779" fill="#d2232a"/><path d="M339.8,330.084h1.39l.681-1.853h2.616l.708,1.853h1.444L343.7,322.7h-1.063Zm2.452-2.915.545-1.444.381-1.144h.027a8.91,8.91,0,0,0,.381,1.144l.518,1.471h-1.853Zm8.065,3.052a2.731,2.731,0,0,0,2.752-1.417,3.254,3.254,0,0,0,.272-1.444v-4.6h-1.335v4.5a2.22,2.22,0,0,1-.191,1.008,1.782,1.782,0,0,1-3,0,2.175,2.175,0,0,1-.191-.981v-4.523h-1.335v4.6a3.208,3.208,0,0,0,.272,1.417,2.747,2.747,0,0,0,2.752,1.444m6.185-.136h1.335v-6.212H359.8l.354-1.144h-5.8v1.144H356.5v6.212Zm4.6,0h1.335V326.9h3.515v3.188h1.362v-7.357h-1.362v3.052h-3.515v-3.024h-1.335Zm11.362.136a3.76,3.76,0,1,0-3.706-3.76,3.562,3.562,0,0,0,3.706,3.76m0-1.144c-1.362,0-2.261-.981-2.261-2.643s.926-2.643,2.261-2.643c1.39,0,2.261,1.008,2.261,2.643,0,1.689-.926,2.643-2.261,2.643m5.122,1.008h1.335v-2.861h.627c.191.054.436.354.79,1.008l1.063,1.853h1.526l-1.226-2.152a3.222,3.222,0,0,0-.926-1.2v-.027a1.939,1.939,0,0,0,1.444-1.907,1.874,1.874,0,0,0-1.09-1.8,3.46,3.46,0,0,0-1.58-.3h-2.016v7.384Zm1.362-3.951v-2.289h.627a1.224,1.224,0,0,1,.817.218,1.039,1.039,0,0,1,.49.926,1.06,1.06,0,0,1-.518.981,1.723,1.723,0,0,1-.817.191h-.6Zm5.1,3.951h1.335v-7.357h-1.335Zm4.5,0h1.335v-6.212h1.962l.381-1.144h-5.8v1.144h2.152v6.212Zm6.7,0h1.362V327.2l2.507-4.441h-1.444L395.955,326h-.027l-1.717-3.242H392.74l2.507,4.441v2.888Z" transform="translate(-231.188 -43.322)" fill="#bcbec0"/><path d="M339.655,295.084h1.335v-5.1h.027c.136.272.354.545.49.763l1.608,2.316h.6l1.444-2.261a6.492,6.492,0,0,0,.49-.817h.027c-.027.3-.027.681-.027.981v4.141h1.362v-7.357h-1.226l-1.771,2.725c-.245.381-.436.708-.6.981h-.027a9.336,9.336,0,0,0-.627-.954l-1.935-2.779H339.6v7.357Zm8.337,0h1.39l.681-1.853h2.616l.708,1.853h1.444l-2.943-7.384h-1.063Zm2.479-2.943.545-1.444.381-1.144h.027c.055.245.163.572.354,1.144l.518,1.471h-1.826Zm5.368,2.943h3.951v-1.144h-2.616v-6.212h-1.335v7.357Zm5.667,0h1.335v-6.212H364.8l.381-1.144h-5.8v1.144h2.152v6.212Zm3,0h1.39l.681-1.853h2.616l.708,1.853h1.444L368.4,287.7h-1.063Zm2.479-2.943.545-1.444.381-1.144h.027a8.917,8.917,0,0,0,.381,1.144l.518,1.471h-1.853Zm13.977-.627H379.6v2.343a3.087,3.087,0,0,1-1.226.218,2.377,2.377,0,0,1-2.507-2.616,2.463,2.463,0,0,1,2.7-2.643,4.241,4.241,0,0,1,2.016.49v-1.253a6.508,6.508,0,0,0-2.125-.354,3.764,3.764,0,0,0-4.033,3.869,3.529,3.529,0,0,0,3.842,3.651,5.86,5.86,0,0,0,2.67-.6v-3.106Zm.872,3.569h1.39l.681-1.853h2.616l.708,1.853h1.444l-2.915-7.384h-1.09Zm2.479-2.943.545-1.444.381-1.144h.027a8.909,8.909,0,0,0,.381,1.144l.518,1.471h-1.853Zm5.368,2.943h1.335v-5.1h.027c.136.272.354.545.49.763l1.608,2.316h.627l1.444-2.261a6.488,6.488,0,0,0,.49-.817h.027c-.027.3-.027.681-.027.981v4.141h1.362v-7.357h-1.226l-1.771,2.725c-.245.381-.436.708-.6.981h-.027c-.164-.3-.354-.572-.6-.954l-1.935-2.779h-1.226v7.357Zm9.209,0h1.335v-7.357h-1.335Zm9.7,0v-7.357h-1.362v3.923c0,.409,0,.845.027,1.226h-.027c-.218-.354-.49-.708-.817-1.144L403.33,287.7h-1.335v7.357h1.335v-4.169c0-.436,0-.845-.027-1.144h.027c.245.327.49.708.817,1.117l3.188,4.2h1.253Zm7.956-3.569h-1.362v2.343a3.087,3.087,0,0,1-1.226.218,2.377,2.377,0,0,1-2.507-2.616,2.463,2.463,0,0,1,2.7-2.643,4.241,4.241,0,0,1,2.016.49v-1.253a6.508,6.508,0,0,0-2.125-.354,3.764,3.764,0,0,0-4.032,3.869,3.529,3.529,0,0,0,3.842,3.651,5.86,5.86,0,0,0,2.67-.6v-3.106Z" transform="translate(-231.043 -17.858)" fill="#bcbec0"/><path d="M93.3,302.519h5.286V291.157a5.62,5.62,0,0,1,3.188-1.09c1.962,0,2.18,1.39,2.18,3.024v9.427h5.286V291.157a5.54,5.54,0,0,1,3.161-1.09c1.962,0,2.207,1.335,2.207,2.943v9.509h5.313V291.648c0-4.632-2.834-6.13-5.885-6.13a9.7,9.7,0,0,0-5.831,2.343,4.96,4.96,0,0,0-4.523-2.343,9.359,9.359,0,0,0-5.422,2.1l-.49-1.689H93.327v16.593Zm36.074,8.31c6.321,0,9.291-2.7,9.291-5.667,0-6.212-10.9-3.515-10.9-6.321a1.886,1.886,0,0,1,.136-.736,7.583,7.583,0,0,0,1.88.218c4.25,0,7.22-2.425,7.22-6.239a5.954,5.954,0,0,0-1.2-3.678,3.264,3.264,0,0,1,.981-.136,8.376,8.376,0,0,1,1.39.164l.981-3.651c-.272-.027-.845-.082-1.2-.082a5.7,5.7,0,0,0-4.414,1.471c-.136.136-.245.218-.409.109a7.226,7.226,0,0,0-3.46-.763c-5.122,0-7.193,3.324-7.193,6.239a5.742,5.742,0,0,0,2.915,5.231,3.764,3.764,0,0,0-2.207,3.052,2.309,2.309,0,0,0,1.09,2.043,4.152,4.152,0,0,0-2.943,3.814c0,2.752,2.806,4.932,8.038,4.932m.763-3.569c-2.643,0-4.141-.954-4.141-2.316a2.1,2.1,0,0,1,.708-1.553c1.689.872,6.975.381,6.975,2.343,0,1.035-1.689,1.526-3.542,1.526m-.381-12.806a2.336,2.336,0,0,1-2.343-2.534,2.243,2.243,0,0,1,2.289-2.561,2.444,2.444,0,0,1,2.425,2.588,2.283,2.283,0,0,1-2.37,2.507m20.844,8.065h4.359a12.731,12.731,0,0,1-.272-3.27v-7.438c0-4.033-2.1-6.321-7.22-6.321a14.988,14.988,0,0,0-6.839,1.608l1.635,3.324a9.615,9.615,0,0,1,4.2-1.008c1.8,0,2.915.627,2.915,2.18v.164l-2.643.109a10.621,10.621,0,0,0-4.387,1.008,4.747,4.747,0,0,0-2.779,4.523,5.341,5.341,0,0,0,5.64,5.422,6.7,6.7,0,0,0,4.632-1.744Zm-1.226-7.384v3.079a4.731,4.731,0,0,1-2.425.6c-1.253,0-2.071-.572-2.071-1.716a1.546,1.546,0,0,1,.736-1.444,4.511,4.511,0,0,1,1.962-.463Z" transform="translate(-51.851 -15.675)" fill="#808285"/></g></svg>